#N canvas 454 169 1238 778 10;
#X obj 102 48 receive proximity;
#X obj 67 282 dac~;
#X obj 16 81 phasor~ 80;
#X msg 102 71 \$1 1000;
#X obj 102 100 line~;
#X obj 102 121 *~;
#X obj 102 151 *~;
#X floatatom 278 73 5 0 0 0 - - -;
#X obj 62 217 vcf~ 6;
#X connect 0 0 3 0;
#X connect 2 0 8 0;
#X connect 3 0 4 0;
#X connect 4 0 5 0;
#X connect 4 0 5 1;
#X connect 5 0 6 1;
#X connect 5 0 6 0;
#X connect 6 0 8 1;
#X connect 7 0 3 0;
#X connect 8 0 1 0;
#X connect 8 0 1 1;
