#N canvas 701 270 884 471 10;
#X obj 7 111 osc~;
#X obj 75 187 *~;
#X obj 91 57 vline~;
#X obj 7 93 +~ 110;
#X obj 91 92 *~ 0.5;
#X obj 7 72 *~ 1550;
#X text 137 23 Here \, sending a float from;
#X text 137 33 Unity to the proximity;
#X text 137 45 receive object triggers a;
#X text 137 56 short vline~ ramp that;
#X text 137 66 applies to both the;
#X text 136 77 oscillator's frequency \,;
#X text 136 88 and its amplitude.;
#X obj 91 5 receive proximity;
#X floatatom 325 73 5 0 0 0 - - -;
#X obj 56 239 dac~;
#X msg 91 38 \$1 5000;
#X connect 0 0 1 0;
#X connect 1 0 15 0;
#X connect 1 0 15 1;
#X connect 2 0 4 0;
#X connect 2 0 5 0;
#X connect 3 0 0 0;
#X connect 4 0 1 1;
#X connect 5 0 3 0;
#X connect 13 0 16 0;
#X connect 13 0 14 0;
#X connect 16 0 2 0;
