#N canvas 530 148 884 471 10;
#X obj 227 10 receive proximity;
#X obj 231 361 dac~;
#X obj 337 238 vcf~ 3;
#X obj 147 198 <~ 0.5;
#X obj 397 180 *~;
#X obj 373 135 *~;
#X obj 90 91 phasor~ 80;
#X obj 252 309 *~ 1;
#X msg 481 138 \; pd dsp 1;
#X obj 501 56 loadbang;
#X connect 0 0 6 0;
#X connect 3 0 7 0;
#X connect 4 0 2 1;
#X connect 5 0 4 0;
#X connect 5 0 4 1;
#X connect 6 0 3 0;
#X connect 7 0 1 0;
#X connect 7 0 1 1;
#X connect 9 0 8 0;
